<svg width="452" height="443" viewBox="0 0 452 443" fill="none" xmlns="http://www.w3.org/2000/svg">
<path d="M296.457 56.2612H155.543C129.601 56.2612 108.571 77.291 108.571 103.233V244.147C108.571 270.089 129.601 291.118 155.543 291.118H296.457C322.399 291.118 343.429 270.089 343.429 244.147V103.233C343.429 77.291 322.399 56.2612 296.457 56.2612Z" fill="#12203A"/>
<path d="M140.445 140.139H178.19C178.19 137.247 179.339 134.473 181.384 132.428C183.428 130.384 186.202 129.235 189.094 129.235C191.986 129.235 194.759 130.384 196.804 132.428C198.849 134.473 199.998 137.247 199.998 140.139H311.555C316.588 140.139 319.104 142.655 319.104 147.688V203.047C319.104 208.08 316.588 210.596 311.555 210.596H199.998C199.998 213.488 198.849 216.261 196.804 218.306C194.759 220.351 191.986 221.5 189.094 221.5C186.202 221.5 183.428 220.351 181.384 218.306C179.339 216.261 178.19 213.488 178.19 210.596H140.445C135.412 210.596 132.896 208.08 132.896 203.047V147.688C132.896 142.655 135.412 140.139 140.445 140.139Z" fill="white"/>
<mask id="mask0_0_3" style="mask-type:luminance" maskUnits="userSpaceOnUse" x="132" y="129" width="188" height="93">
<path d="M140.445 140.139H178.19C178.19 137.247 179.339 134.473 181.384 132.428C183.428 130.384 186.202 129.235 189.094 129.235C191.986 129.235 194.759 130.384 196.804 132.428C198.849 134.473 199.998 137.247 199.998 140.139H311.555C316.588 140.139 319.104 142.655 319.104 147.688V203.047C319.104 208.08 316.588 210.596 311.555 210.596H199.998C199.998 213.488 198.849 216.261 196.804 218.306C194.759 220.351 191.986 221.5 189.094 221.5C186.202 221.5 183.428 220.351 181.384 218.306C179.339 216.261 178.19 213.488 178.19 210.596H140.445C135.412 210.596 132.896 208.08 132.896 203.047V147.688C132.896 142.655 135.412 140.139 140.445 140.139Z" fill="white"/>
</mask>
<g mask="url(#mask0_0_3)">
<path d="M189.094 140.139H132.896V210.596H189.094V140.139Z" fill="#22C55E"/>
</g>
<path d="M189.094 151.043C195.116 151.043 199.998 146.161 199.998 140.139C199.998 134.117 195.116 129.235 189.094 129.235C183.072 129.235 178.19 134.117 178.19 140.139C178.19 146.161 183.072 151.043 189.094 151.043Z" fill="#12203A"/>
<path d="M189.094 221.5C195.116 221.5 199.998 216.618 199.998 210.596C199.998 204.574 195.116 199.692 189.094 199.692C183.072 199.692 178.19 204.574 178.19 210.596C178.19 216.618 183.072 221.5 189.094 221.5Z" fill="#12203A"/>
<path opacity="0.82" d="M212.58 164.463H309.039" stroke="#12203A" stroke-width="5.45204" stroke-linecap="round"/>
<path opacity="0.82" d="M212.58 175.367H309.039" stroke="#12203A" stroke-width="5.45204" stroke-linecap="round"/>
<path d="M212.58 186.271H273.81" stroke="#22C55E" stroke-width="5.45204" stroke-linecap="round"/>
<path d="M155.921 347.796V309.044H180.832V315.688H163.228V324.933H179.282V331.576H163.228V341.153H181.165V347.796H155.921ZM195.542 347.796V315.688H184.249V309.044H214.143V315.688H202.849V347.796H195.542ZM219.119 347.796V309.044H232.682L239.38 342.814H240.377L247.075 309.044H260.638V347.796H253.552V314.414H252.556L245.913 347.796H233.845L227.201 314.414H226.205V347.796H219.119ZM281.389 348.571C278.4 348.571 275.761 348.036 273.473 346.966C271.184 345.895 269.394 344.364 268.103 342.371C266.811 340.378 266.165 337.979 266.165 335.174V333.624H273.362V335.174C273.362 337.499 274.082 339.252 275.521 340.433C276.96 341.577 278.916 342.149 281.389 342.149C283.899 342.149 285.762 341.651 286.98 340.655C288.235 339.658 288.862 338.385 288.862 336.835C288.862 335.765 288.549 334.897 287.921 334.233C287.331 333.569 286.445 333.033 285.264 332.628C284.12 332.185 282.718 331.779 281.057 331.41L279.784 331.133C277.126 330.542 274.838 329.804 272.919 328.918C271.037 327.996 269.579 326.796 268.546 325.32C267.549 323.844 267.051 321.925 267.051 319.563C267.051 317.201 267.605 315.189 268.712 313.529C269.856 311.831 271.443 310.539 273.473 309.653C275.539 308.731 277.957 308.269 280.725 308.269C283.493 308.269 285.947 308.749 288.087 309.709C290.265 310.631 291.963 312.034 293.18 313.916C294.435 315.761 295.063 318.086 295.063 320.891V322.552H287.866V320.891C287.866 319.415 287.571 318.234 286.98 317.348C286.427 316.426 285.615 315.761 284.544 315.355C283.474 314.913 282.201 314.691 280.725 314.691C278.51 314.691 276.868 315.116 275.798 315.964C274.764 316.776 274.248 317.902 274.248 319.341C274.248 320.301 274.488 321.113 274.967 321.777C275.484 322.441 276.241 322.995 277.237 323.438C278.234 323.881 279.507 324.268 281.057 324.6L282.33 324.877C285.098 325.468 287.497 326.224 289.527 327.147C291.594 328.07 293.199 329.288 294.343 330.801C295.487 332.314 296.059 334.251 296.059 336.613C296.059 338.975 295.45 341.061 294.232 342.869C293.051 344.64 291.354 346.043 289.139 347.076C286.962 348.073 284.378 348.571 281.389 348.571Z" fill="#12203A"/>
<path d="M153.95 374.511V367.969H151.591V367.172H157.19V367.969H154.831V374.511H153.95ZM158.311 374.511V367.172H159.192V374.511H158.311ZM163.523 374.658C162.65 374.658 161.954 374.406 161.437 373.903C160.92 373.393 160.661 372.652 160.661 371.68V370.003C160.661 369.031 160.92 368.294 161.437 367.791C161.954 367.28 162.65 367.025 163.523 367.025C164.39 367.025 165.054 367.266 165.515 367.749C165.984 368.231 166.218 368.891 166.218 369.73V369.783H165.348V369.699C165.348 369.147 165.197 368.696 164.897 368.346C164.603 367.99 164.145 367.812 163.523 367.812C162.901 367.812 162.415 368.004 162.066 368.388C161.716 368.766 161.542 369.297 161.542 369.982V371.701C161.542 372.386 161.716 372.921 162.066 373.305C162.415 373.683 162.901 373.872 163.523 373.872C164.145 373.872 164.603 373.697 164.897 373.347C165.197 372.991 165.348 372.537 165.348 371.984V371.817H166.218V371.953C166.218 372.792 165.984 373.452 165.515 373.935C165.054 374.417 164.39 374.658 163.523 374.658ZM167.598 374.511V367.172H168.478V370.37H168.625L171.729 367.172H172.903L169.328 370.8L173.029 374.511H171.823L168.625 371.25H168.478V374.511H167.598ZM173.997 374.511V367.172H178.516V367.969H174.878V370.422H178.222V371.219H174.878V373.714H178.568V374.511H173.997ZM181.708 374.511V367.969H179.349V367.172H184.948V367.969H182.589V374.511H181.708ZM188.485 374.511V367.172H190.163L192.113 373.956H192.249L194.199 367.172H195.877V374.511H195.028V367.749H194.881L192.941 374.511H191.421L189.481 367.749H189.334V374.511H188.485ZM196.98 374.511L199.245 367.172H200.797L203.061 374.511H202.149L201.583 372.655H198.459L197.892 374.511H196.98ZM198.679 371.859H201.352L200.094 367.707H199.947L198.679 371.859ZM204.161 374.511V367.172H205.87L208.428 373.956H208.565V367.172H209.435V374.511H207.726L205.178 367.717H205.031V374.511H204.161ZM210.547 374.511L212.812 367.172H214.363L216.628 374.511H215.716L215.15 372.655H212.025L211.459 374.511H210.547ZM212.245 371.859H214.919L213.661 367.707H213.514L212.245 371.859ZM220.183 374.658C219.638 374.658 219.156 374.546 218.737 374.323C218.324 374.092 217.999 373.756 217.762 373.316C217.531 372.876 217.416 372.33 217.416 371.68V370.003C217.416 369.031 217.674 368.294 218.191 367.791C218.709 367.28 219.404 367.025 220.278 367.025C221.145 367.025 221.805 367.263 222.259 367.738C222.714 368.213 222.941 368.849 222.941 369.646V369.699H222.071V369.625C222.071 369.276 222.008 368.965 221.882 368.692C221.756 368.42 221.56 368.206 221.295 368.053C221.029 367.892 220.69 367.812 220.278 367.812C219.656 367.812 219.17 368.004 218.82 368.388C218.471 368.766 218.296 369.297 218.296 369.982V371.701C218.296 372.386 218.471 372.921 218.82 373.305C219.17 373.683 219.659 373.872 220.288 373.872C220.903 373.872 221.354 373.697 221.641 373.347C221.934 372.998 222.081 372.533 222.081 371.953V371.775H219.858V371.02H222.941V374.511H222.144V373.714H221.997C221.92 373.868 221.812 374.018 221.672 374.165C221.533 374.312 221.344 374.431 221.106 374.522C220.868 374.613 220.561 374.658 220.183 374.658ZM224.547 374.511V367.172H229.066V367.969H225.427V370.422H228.772V371.219H225.427V373.714H229.118V374.511H224.547ZM230.455 374.511V367.172H232.132L234.082 373.956H234.219L236.169 367.172H237.846V374.511H236.997V367.749H236.85L234.911 374.511H233.39L231.451 367.749H231.304V374.511H230.455ZM239.526 374.511V367.172H244.045V367.969H240.407V370.422H243.752V371.219H240.407V373.714H244.098V374.511H239.526ZM245.434 374.511V367.172H247.143L249.701 373.956H249.838V367.172H250.708V374.511H248.999L246.451 367.717H246.304V374.511H245.434ZM254.2 374.511V367.969H251.841V367.172H257.44V367.969H255.081V374.511H254.2ZM263.41 374.658C262.878 374.658 262.403 374.564 261.984 374.375C261.564 374.186 261.232 373.903 260.988 373.526C260.75 373.141 260.631 372.662 260.631 372.089V371.869H261.501V372.089C261.501 372.697 261.68 373.152 262.036 373.452C262.393 373.746 262.85 373.893 263.41 373.893C263.983 373.893 264.42 373.763 264.72 373.505C265.021 373.246 265.171 372.921 265.171 372.53C265.171 372.257 265.101 372.04 264.961 371.88C264.829 371.719 264.64 371.589 264.395 371.492C264.151 371.387 263.864 371.296 263.535 371.219L262.99 371.083C262.564 370.971 262.186 370.835 261.858 370.674C261.529 370.513 261.271 370.303 261.082 370.045C260.9 369.779 260.809 369.44 260.809 369.028C260.809 368.615 260.911 368.259 261.113 367.958C261.323 367.658 261.613 367.427 261.984 367.266C262.361 367.106 262.795 367.025 263.284 367.025C263.78 367.025 264.224 367.113 264.615 367.287C265.014 367.455 265.325 367.707 265.549 368.042C265.779 368.371 265.895 368.787 265.895 369.29V369.73H265.024V369.29C265.024 368.933 264.947 368.647 264.794 368.43C264.647 368.213 264.441 368.053 264.175 367.948C263.916 367.843 263.619 367.791 263.284 367.791C262.802 367.791 262.414 367.899 262.12 368.116C261.826 368.325 261.68 368.626 261.68 369.017C261.68 369.276 261.743 369.486 261.868 369.646C261.994 369.807 262.172 369.94 262.403 370.045C262.634 370.143 262.91 370.23 263.231 370.307L263.777 370.443C264.203 370.534 264.584 370.66 264.919 370.821C265.262 370.974 265.535 371.188 265.737 371.46C265.94 371.726 266.041 372.075 266.041 372.509C266.041 372.942 265.933 373.319 265.716 373.641C265.5 373.963 265.192 374.214 264.794 374.396C264.402 374.571 263.941 374.658 263.41 374.658ZM269.1 374.511V371.712L266.49 367.172H267.496L269.467 370.695H269.614L271.585 367.172H272.592L269.981 371.712V374.511H269.1ZM275.84 374.658C275.309 374.658 274.833 374.564 274.414 374.375C273.994 374.186 273.662 373.903 273.418 373.526C273.18 373.141 273.061 372.662 273.061 372.089V371.869H273.932V372.089C273.932 372.697 274.11 373.152 274.466 373.452C274.823 373.746 275.281 373.893 275.84 373.893C276.413 373.893 276.85 373.763 277.15 373.505C277.451 373.246 277.601 372.921 277.601 372.53C277.601 372.257 277.531 372.04 277.391 371.88C277.259 371.719 277.07 371.589 276.825 371.492C276.581 371.387 276.294 371.296 275.966 371.219L275.42 371.083C274.994 370.971 274.617 370.835 274.288 370.674C273.959 370.513 273.701 370.303 273.512 370.045C273.33 369.779 273.24 369.44 273.24 369.028C273.24 368.615 273.341 368.259 273.544 367.958C273.753 367.658 274.043 367.427 274.414 367.266C274.791 367.106 275.225 367.025 275.714 367.025C276.21 367.025 276.654 367.113 277.045 367.287C277.444 367.455 277.755 367.707 277.979 368.042C278.209 368.371 278.325 368.787 278.325 369.29V369.73H277.454V369.29C277.454 368.933 277.378 368.647 277.224 368.43C277.077 368.213 276.871 368.053 276.605 367.948C276.347 367.843 276.049 367.791 275.714 367.791C275.232 367.791 274.844 367.899 274.55 368.116C274.257 368.325 274.11 368.626 274.11 369.017C274.11 369.276 274.173 369.486 274.298 369.646C274.424 369.807 274.603 369.94 274.833 370.045C275.064 370.143 275.34 370.23 275.662 370.307L276.207 370.443C276.633 370.534 277.014 370.66 277.35 370.821C277.692 370.974 277.965 371.188 278.167 371.46C278.37 371.726 278.471 372.075 278.471 372.509C278.471 372.942 278.363 373.319 278.146 373.641C277.93 373.963 277.622 374.214 277.224 374.396C276.832 374.571 276.371 374.658 275.84 374.658ZM281.313 374.511V367.969H278.954V367.172H284.553V367.969H282.194V374.511H281.313ZM285.673 374.511V367.172H290.192V367.969H286.554V370.422H289.899V371.219H286.554V373.714H290.245V374.511H285.673ZM291.581 374.511V367.172H293.259L295.209 373.956H295.345L297.295 367.172H298.973V374.511H298.124V367.749H297.977L296.037 374.511H294.517L292.577 367.749H292.43V374.511H291.581Z" fill="#94A3B8"/>
</svg>
